<svg height="24" viewBox="0 0 245 240" fill="#dcdcdc" xmlns="http://www.w3.org/2000/svg">
  <path d="M104.4 104.2c-5.7 0-10.2 5-10.2 11.1s4.6 11.1 10.2 11.1c5.7 0 10.2-5 10.2-11.1.1-6.1-4.5-11.1-10.2-11.1zm36.2 0c-5.7 0-10.2 5-10.2 11.1s4.6 11.1 10.2 11.1c5.7 0 10.2-5 10.2-11.1s-4.5-11.1-10.2-11.1z"/><path d="M189.5 20h-134C42 20 30 32.2 30 47.5v147c0 15.2 12 27.5 25.5 27.5h113l-5.3-18.4 12.7 11.8 12 11.2L215 220V47.5C215 32.2 203 20 189.5 20zM163.1 152s-4.3-5.1-7.9-9.6c15.7-4.5 21.7-14.4 21.7-14.4-4.9 3.2-9.5 5.5-13.6 7.1-5.9 2.5-11.6 4.2-17.1 5.2-11.3 2.1-21.6 1.5-30.5-.1-6.7-1.3-12.5-3.1-17.3-5.2-2.7-1.1-5.7-2.5-8.7-4.2-.4-.2-.8-.4-1.2-.6-.3-.2-.5-.3-.7-.5-3.1-1.7-4.8-2.9-4.8-2.9s5.8 9.7 21.2 14.4c-3.6 4.5-8 9.8-8 9.8-26.5-.8-36.6-18.2-36.6-18.2 0-38.5 17.2-69.8 17.2-69.8C85.7 56 97.4 55 97.4 55l1.7 2c-22.2 6.4-32.4 16.1-32.4 16.1s2.7-1.5 7.2-3.7c13-5.7 23.3-7.2 27.5-7.6.7-.1 1.3-.2 2-.2 7.1-.9 15.1-1.1 23.3-.2 10.9 1.3 22.6 4.6 34.5 11.3 0 0-9.7-9.2-30.6-15.6l2.4-2.7s11.7-1 24.5 5.9c0 0 17.2 31.3 17.2 69.8 0 0-10.4 17.4-36.9 18.2z"/>
</svg>