<svg height="24" viewBox="0 0 16 16" width="24" fill="#dcdcdc" xmlns="http://www.w3.org/2000/svg">
  <path d="M8 .198a8 8 0 00-2.53 15.6c.4.074.547-.174.547-.386 0-.19-.007-.693-.01-1.36-2.226.483-2.695-1.073-2.695-1.073a2.123 2.123 0 00-.889-1.167c-.725-.497.056-.487.056-.487a1.7 1.7 0 011.25.844 1.72 1.72 0 002.35.67 1.715 1.715 0 01.51-1.074c-1.778-.2-3.644-.889-3.644-3.956a3.1 3.1 0 01.827-2.148 2.86 2.86 0 01.078-2.118s.672-.215 2.2.82a7.555 7.555 0 012.003-.27 7.56 7.56 0 012.002.27c1.527-1.035 2.197-.82 2.197-.82a2.859 2.859 0 01.08 2.118 3.09 3.09 0 01.825 2.148c0 3.077-1.87 3.753-3.653 3.95a1.932 1.932 0 01.553 1.495c0 1.078-.01 1.948-.01 2.21 0 .215.145.464.55.385A8.001 8.001 0 008 .197z"/>
</svg>